<svg xmlns="http://www.w3.org/2000/svg" version="1.1" xmlns:xlink="http://www.w3.org/1999/xlink" xmlns:svgjs="http://svgjs.dev/svgjs" viewBox="0 0 800 800"><defs><linearGradient x1="50%" y1="0%" x2="50%" y2="100%" id="ffflurry-grad" gradientTransform="rotate(270)"><stop stop-color="hsl(238, 82%, 13%)" stop-opacity="1" offset="0%"></stop><stop stop-color="hsl(1.4, 100%, 67%)" stop-opacity="1" offset="45%"></stop><stop stop-color="hsl(167, 52%, 78%)" stop-opacity="1" offset="100%"></stop></linearGradient></defs><rect width="100%" height="100%" fill="#bb9692"></rect><g fill="#deccca"><rect width="102" height="3" x="-10" y="559.5" rx="1.5" transform="rotate(45, 41, 561)" opacity="0.71"></rect><rect width="268" height="3" x="-87" y="406.5" rx="1.5" transform="rotate(45, 47, 408)" opacity="0.38"></rect><rect width="171" height="3" x="49.5" y="342.5" rx="1.5" transform="rotate(45, 135, 344)" opacity="0.79"></rect><rect width="445" height="3" x="-56.5" y="293.5" rx="1.5" transform="rotate(45, 166, 295)" opacity="0.81"></rect><rect width="548" height="3" x="-124" y="144.5" rx="1.5" transform="rotate(45, 150, 146)" opacity="0.49"></rect><rect width="570" height="3" x="342" y="645.5" rx="1.5" transform="rotate(45, 627, 647)" opacity="0.07"></rect><rect width="134" height="3" x="260" y="266.5" rx="1.5" transform="rotate(45, 327, 268)" opacity="0.48"></rect><rect width="257" height="3" x="171.5" y="693.5" rx="1.5" transform="rotate(45, 300, 695)" opacity="0.86"></rect><rect width="74" height="3" x="299" y="112.5" rx="1.5" transform="rotate(45, 336, 114)" opacity="0.58"></rect><rect width="324" height="3" x="614" y="41.5" rx="1.5" transform="rotate(45, 776, 43)" opacity="0.46"></rect><rect width="218" height="3" x="137" y="284.5" rx="1.5" transform="rotate(45, 246, 286)" opacity="0.25"></rect><rect width="491" height="3" x="-69.5" y="221.5" rx="1.5" transform="rotate(45, 176, 223)" opacity="0.74"></rect><rect width="505" height="3" x="264.5" y="674.5" rx="1.5" transform="rotate(45, 517, 676)" opacity="0.99"></rect><rect width="332" height="3" x="534" y="407.5" rx="1.5" transform="rotate(45, 700, 409)" opacity="0.90"></rect><rect width="323" height="3" x="51.5" y="360.5" rx="1.5" transform="rotate(45, 213, 362)" opacity="0.52"></rect><rect width="276" height="3" x="634" y="146.5" rx="1.5" transform="rotate(45, 772, 148)" opacity="0.23"></rect><rect width="180" height="3" x="353" y="298.5" rx="1.5" transform="rotate(45, 443, 300)" opacity="0.45"></rect><rect width="477" height="3" x="61.5" y="595.5" rx="1.5" transform="rotate(45, 300, 597)" opacity="0.96"></rect><rect width="113" height="3" x="154.5" y="520.5" rx="1.5" transform="rotate(45, 211, 522)" opacity="0.07"></rect><rect width="628" height="3" x="440" y="308.5" rx="1.5" transform="rotate(45, 754, 310)" opacity="0.76"></rect><rect width="572" height="3" x="230" y="471.5" rx="1.5" transform="rotate(45, 516, 473)" opacity="0.70"></rect><rect width="176" height="3" x="162" y="45.5" rx="1.5" transform="rotate(45, 250, 47)" opacity="0.98"></rect><rect width="57" height="3" x="699.5" y="49.5" rx="1.5" transform="rotate(45, 728, 51)" opacity="0.08"></rect><rect width="170" height="3" x="650" y="648.5" rx="1.5" transform="rotate(45, 735, 650)" opacity="0.12"></rect><rect width="509" height="3" x="322.5" y="314.5" rx="1.5" transform="rotate(45, 577, 316)" opacity="0.23"></rect><rect width="275" height="3" x="180.5" y="770.5" rx="1.5" transform="rotate(45, 318, 772)" opacity="0.12"></rect><rect width="153" height="3" x="277.5" y="516.5" rx="1.5" transform="rotate(45, 354, 518)" opacity="0.92"></rect><rect width="95" height="3" x="374.5" y="104.5" rx="1.5" transform="rotate(45, 422, 106)" opacity="0.20"></rect><rect width="540" height="3" x="-225" y="720.5" rx="1.5" transform="rotate(45, 45, 722)" opacity="0.76"></rect><rect width="188" height="3" x="498" y="470.5" rx="1.5" transform="rotate(45, 592, 472)" opacity="0.52"></rect><rect width="64" height="3" x="510" y="592.5" rx="1.5" transform="rotate(45, 542, 594)" opacity="0.87"></rect><rect width="57" height="3" x="95.5" y="488.5" rx="1.5" transform="rotate(45, 124, 490)" opacity="0.09"></rect><rect width="266" height="3" x="518" y="745.5" rx="1.5" transform="rotate(45, 651, 747)" opacity="0.82"></rect><rect width="303" height="3" x="615.5" y="429.5" rx="1.5" transform="rotate(45, 767, 431)" opacity="0.95"></rect><rect width="351" height="3" x="55.5" y="725.5" rx="1.5" transform="rotate(45, 231, 727)" opacity="1.00"></rect><rect width="457" height="3" x="316.5" y="758.5" rx="1.5" transform="rotate(45, 545, 760)" opacity="0.59"></rect><rect width="136" height="3" x="351" y="772.5" rx="1.5" transform="rotate(45, 419, 774)" opacity="0.41"></rect><rect width="392" height="3" x="255" y="713.5" rx="1.5" transform="rotate(45, 451, 715)" opacity="0.79"></rect><rect width="398" height="3" x="59" y="158.5" rx="1.5" transform="rotate(45, 258, 160)" opacity="0.82"></rect><rect width="407" height="3" x="510.5" y="123.5" rx="1.5" transform="rotate(45, 714, 125)" opacity="0.84"></rect><rect width="167" height="3" x="287.5" y="699.5" rx="1.5" transform="rotate(45, 371, 701)" opacity="0.36"></rect><rect width="348" height="3" x="330" y="371.5" rx="1.5" transform="rotate(45, 504, 373)" opacity="0.49"></rect><rect width="87" height="3" x="54.5" y="380.5" rx="1.5" transform="rotate(45, 98, 382)" opacity="0.66"></rect><rect width="97" height="3" x="590.5" y="421.5" rx="1.5" transform="rotate(45, 639, 423)" opacity="0.50"></rect><rect width="581" height="3" x="211.5" y="48.5" rx="1.5" transform="rotate(45, 502, 50)" opacity="0.74"></rect><rect width="98" height="3" x="614" y="44.5" rx="1.5" transform="rotate(45, 663, 46)" opacity="0.72"></rect><rect width="654" height="3" x="233" y="226.5" rx="1.5" transform="rotate(45, 560, 228)" opacity="0.47"></rect><rect width="68" height="3" x="323" y="404.5" rx="1.5" transform="rotate(45, 357, 406)" opacity="0.95"></rect><rect width="402" height="3" x="394" y="87.5" rx="1.5" transform="rotate(45, 595, 89)" opacity="0.98"></rect><rect width="463" height="3" x="268.5" y="166.5" rx="1.5" transform="rotate(45, 500, 168)" opacity="0.23"></rect><rect width="146" height="3" x="680" y="746.5" rx="1.5" transform="rotate(45, 753, 748)" opacity="0.11"></rect><rect width="696" height="3" x="45" y="202.5" rx="1.5" transform="rotate(45, 393, 204)" opacity="0.31"></rect><rect width="94" height="3" x="334" y="28.5" rx="1.5" transform="rotate(45, 381, 30)" opacity="0.68"></rect><rect width="218" height="3" x="-77" y="335.5" rx="1.5" transform="rotate(45, 32, 337)" opacity="0.55"></rect><rect width="110" height="3" x="89" y="746.5" rx="1.5" transform="rotate(45, 144, 748)" opacity="0.55"></rect><rect width="410" height="3" x="-104" y="617.5" rx="1.5" transform="rotate(45, 101, 619)" opacity="0.26"></rect><rect width="204" height="3" x="648" y="215.5" rx="1.5" transform="rotate(45, 750, 217)" opacity="0.86"></rect><rect width="258" height="3" x="154" y="465.5" rx="1.5" transform="rotate(45, 283, 467)" opacity="0.53"></rect><rect width="443" height="3" x="446.5" y="329.5" rx="1.5" transform="rotate(45, 668, 331)" opacity="0.69"></rect><rect width="630" height="3" x="342" y="213.5" rx="1.5" transform="rotate(45, 657, 215)" opacity="0.97"></rect><rect width="282" height="3" x="437" y="398.5" rx="1.5" transform="rotate(45, 578, 400)" opacity="0.55"></rect><rect width="105" height="3" x="354.5" y="619.5" rx="1.5" transform="rotate(45, 407, 621)" opacity="0.85"></rect><rect width="191" height="3" x="123.5" y="432.5" rx="1.5" transform="rotate(45, 219, 434)" opacity="0.65"></rect><rect width="86" height="3" x="115" y="409.5" rx="1.5" transform="rotate(45, 158, 411)" opacity="0.42"></rect><rect width="124" height="3" x="558" y="542.5" rx="1.5" transform="rotate(45, 620, 544)" opacity="0.35"></rect><rect width="617" height="3" x="-176.5" y="51.5" rx="1.5" transform="rotate(45, 132, 53)" opacity="0.26"></rect><rect width="325" height="3" x="-125.5" y="467.5" rx="1.5" transform="rotate(45, 37, 469)" opacity="0.69"></rect><rect width="666" height="3" x="128" y="540.5" rx="1.5" transform="rotate(45, 461, 542)" opacity="0.69"></rect><rect width="187" height="3" x="601.5" y="497.5" rx="1.5" transform="rotate(45, 695, 499)" opacity="0.21"></rect><rect width="252" height="3" x="-32" y="274.5" rx="1.5" transform="rotate(45, 94, 276)" opacity="0.87"></rect><rect width="90" height="3" x="3" y="152.5" rx="1.5" transform="rotate(45, 48, 154)" opacity="0.37"></rect><rect width="331" height="3" x="585.5" y="556.5" rx="1.5" transform="rotate(45, 751, 558)" opacity="0.68"></rect><rect width="198" height="3" x="-60" y="239.5" rx="1.5" transform="rotate(45, 39, 241)" opacity="0.98"></rect><rect width="246" height="3" x="176" y="362.5" rx="1.5" transform="rotate(45, 299, 364)" opacity="0.59"></rect><rect width="448" height="3" x="204" y="428.5" rx="1.5" transform="rotate(45, 428, 430)" opacity="0.66"></rect><rect width="766" height="3" x="-187" y="618.5" rx="1.5" transform="rotate(45, 196, 620)" opacity="0.61"></rect><rect width="489" height="3" x="-205.5" y="50.5" rx="1.5" transform="rotate(45, 39, 52)" opacity="0.40"></rect></g></svg>