<svg xmlns="http://www.w3.org/2000/svg" version="1.1" xmlns:xlink="http://www.w3.org/1999/xlink" xmlns:svgjs="http://svgjs.dev/svgjs" viewBox="0 0 1422 800"><defs><filter id="uuunion-blur" x="-100%" y="-100%" width="400%" height="400%" color-interpolation-filters="sRGB">
        <feGaussianBlur in="SourceGraphic" stdDeviation="7.5 0" result="blur"></feGaussianBlur>
        <feDropShadow stdDeviation="12.307692307692308" in="blur" dx="10" dy="10" flood-color="#BB9692" flood-opacity="0.25" x="0%" y="0%" width="100%" height="100%"></feDropShadow>
      </filter><filter id="uuunion-blur2" x="-100%" y="-100%" width="400%" height="400%" color-interpolation-filters="sRGB">
        <feGaussianBlur in="SourceGraphic" stdDeviation="7.5 0" result="blur"></feGaussianBlur>
        <feDropShadow stdDeviation="12.307692307692308" in="blur" dx="-10" dy="-10" flood-color="#BB9692" flood-opacity="0.25" x="0%" y="0%" width="100%" height="100%"></feDropShadow>
      </filter><linearGradient gradientTransform="rotate(0, 0.5, 0.5)" x1="50%" y1="0%" x2="50%" y2="100%" id="uuunion-grad"><stop stop-color="#deccca" offset="10%"></stop><stop stop-color="#BB9692" offset="90%"></stop></linearGradient><linearGradient gradientTransform="rotate(135, 0.5, 0.5)" x1="50%" y1="0%" x2="50%" y2="100%" id="uuunion-grad2"><stop stop-color="#deccca" offset="25%"></stop><stop stop-color="#BB9692" offset="100%"></stop></linearGradient><linearGradient gradientTransform="rotate(333, 0.5, 0.5)" x1="50%" y1="0%" x2="50%" y2="100%" id="uuunion-grad3"><stop stop-color="#deccca" offset="0%"></stop><stop stop-color="#BB9692" offset="75%"></stop></linearGradient></defs><path d="M-134.82 -89.36Q-121.74 -89.18 -108.65 -88.17 -95.57 -86.42 -82.48 -84.07 -69.4 -81.36 -56.31 -78.52 -43.22 -75.82 -30.14 -73.5 -17.05 -71.77 -3.97 -70.79 9.11 -70.64 22.19 -71.35 35.28 -72.85 48.37 -75 61.45 -77.6 74.54 -80.42 87.62 -83.2 100.71 -85.69 113.79 -87.66 126.88 -88.94 139.97 -89.39 153.05 -89 166.14 -87.78 179.22 -85.85 192.31 -83.39 205.39 -80.62 218.48 -77.79 231.57 -75.17 244.65 -72.98 257.74 -71.43 270.82 -70.67 283.91 -70.75 296.99 -71.67 310.08 -73.36 323.17 -75.64 336.25 -78.33 349.34 -81.16 362.42 -83.89 375.51 -86.27 388.59 -88.07 401.68 -89.14 414.77 -89.37 427.85 -88.75 440.94 -87.34 454.02 -85.25 467.11 -82.68 480.19 -79.87 493.28 -77.07 506.37 -74.54 519.45 -72.51 532.54 -71.15 545.62 -70.6 558.71 -70.91 571.8 -72.05 584.88 -73.9 597.97 -76.32 611.05 -79.07 624.14 -81.9 637.22 -84.56 650.31 -86.8 663.4 -88.43 676.48 -89.28 689.57 -89.29 702.65 -88.45 715.74 -86.85 728.82 -84.61 741.91 -81.96 755 -79.13 768.08 -76.38 781.17 -73.95 794.25 -72.08 807.34 -70.93 820.42 -70.6 833.51 -71.13 846.6 -72.47 859.68 -74.49 872.77 -77.02 885.85 -79.81 898.94 -82.62 912.03 -85.2 925.11 -87.3 938.2 -88.73 951.28 -89.37 964.37 -89.15 977.45 -88.1 990.54 -86.31 1003.63 -83.95 1016.71 -81.23 1029.8 -78.39 1042.88 -75.7 1055.97 -73.4 1069.06 -71.7 1082.14 -70.76 1095.23 -70.66 1108.31 -71.41 1121.4 -72.94 1134.48 -75.11 1147.57 -77.73 1160.66 -80.56 1173.74 -83.33 1186.83 -85.8 1199.91 -87.74 1213 -88.98 1226.09 -89.39 1239.17 -88.96 1252.26 -87.7 1265.34 -85.74 1278.43 -83.26 1291.51 -80.48 1304.6 -77.66 1317.69 -75.05 1330.77 -72.89 1343.86 -71.38 1356.94 -70.65 1370.03 -70.77 1383.12 -71.74 1396.2 -73.45 1409.29 -75.77 1422.37 -78.46 1435.46 -81.3 1448.54 -84.02 1461.63 -86.37 1474.72 -88.14 1487.8 -89.17 1500.89 -89.36 1513.97 -88.7 1527.06 -87.25 1540.15 -85.13 1542.14 -70.19 1545.6 -55.26 1550.29 -40.32 1555.91 -25.38 1562.09 -10.44 1568.4 4.49 1574.43 19.43 1579.78 34.36 1584.1 49.3 1587.09 64.24 1588.56 79.18 1588.41 94.12 1586.64 109.06 1583.39 124 1578.86 138.93 1573.35 153.87 1567.23 168.81 1560.92 183.75 1554.82 198.69 1549.34 213.63 1544.85 228.57 1541.65 243.5 1539.95 258.44 1539.86 273.38 1541.39 288.32 1544.44 303.26 1548.8 318.2 1554.18 333.13 1560.23 348.07 1566.55 363.01 1572.7 377.95 1578.3 392.89 1582.95 407.83 1586.36 422.77 1588.29 437.7 1588.62 452.64 1587.33 467.58 1584.49 482.52 1580.31 497.46 1575.05 512.4 1569.08 527.34 1562.78 542.27 1556.57 557.21 1550.87 572.15 1546.05 587.09 1542.45 602.03 1540.29 616.97 1539.72 631.91 1540.77 646.84 1543.39 661.78 1547.39 676.72 1552.51 691.66 1558.4 706.6 1564.68 721.54 1570.93 736.47 1576.73 751.41 1581.69 766.35 1585.5 781.29 1587.88 796.23 1588.69 811.17 1587.87 826.11 1585.48 841.04 1581.67 855.98 1576.7 870.92 1563.24 867.19 1549.78 864.62 1536.32 863.45 1522.86 863.79 1509.4 865.61 1495.94 868.74 1482.48 872.89 1469.03 877.69 1455.57 882.7 1442.11 887.46 1428.65 891.55 1415.19 894.58 1401.73 896.28 1388.27 896.5 1374.81 895.21 1361.36 892.54 1347.9 888.73 1334.44 884.12 1320.98 879.14 1307.52 874.23 1294.06 869.85 1280.6 866.39 1267.14 864.17 1253.69 863.4 1240.23 864.13 1226.77 866.31 1213.31 869.74 1199.85 874.1 1186.39 879 1172.93 883.99 1159.47 888.61 1146.02 892.46 1132.56 895.16 1119.1 896.48 1105.64 896.31 1092.18 894.64 1078.72 891.64 1065.26 887.58 1051.8 882.83 1038.35 877.82 1024.89 873.01 1011.43 868.84 997.97 865.68 984.51 863.82 971.05 863.44 957.59 864.57 944.13 867.1 930.68 870.81 917.22 875.35 903.76 880.32 890.3 885.26 876.84 889.71 863.38 893.29 849.92 895.65 836.46 896.58 823.01 896.01 809.55 893.97 796.09 890.67 782.63 886.39 769.17 881.53 755.71 876.52 742.25 871.84 728.79 867.9 715.34 865.06 701.88 863.58 688.42 863.59 674.96 865.1 661.5 867.97 648.04 871.93 634.58 876.63 621.12 881.63 607.67 886.49 594.21 890.75 580.75 894.03 567.29 896.04 553.83 896.58 540.37 895.61 526.91 893.22 513.45 889.62 500 885.15 486.54 880.21 473.08 875.25 459.62 870.72 446.16 867.03 432.7 864.53 419.24 863.43 405.78 863.85 392.33 865.73 378.87 868.92 365.41 873.11 351.95 877.93 338.49 882.94 325.03 887.68 311.57 891.72 298.12 894.69 284.66 896.33 271.2 896.47 257.74 895.12 244.28 892.38 230.82 888.52 217.36 883.88 203.9 878.89 190.45 874 176.99 869.65 163.53 866.25 150.07 864.1 136.61 863.4 123.15 864.2 109.69 866.45 96.23 869.93 82.78 874.33 69.32 879.24 55.86 884.23 42.4 888.82 28.94 892.61 15.48 895.26 2.02 896.51 -11.42 896.26 -24.88 894.52 -38.34 891.47 -51.8 887.37 -65.26 882.59 -78.72 877.58 -92.18 872.79 -105.64 868.66 -119.09 865.56 -132.55 863.77 -146.01 863.46 -147.53 848.57 -148.7 833.69 -149.43 818.8 -149.68 803.91 -149.43 789.02 -148.7 774.13 -147.54 759.25 -146.02 744.36 -144.25 729.47 -142.33 714.58 -140.41 699.69 -138.61 684.81 -137.04 669.92 -135.82 655.03 -135.02 640.14 -134.69 625.25 -134.87 610.37 -135.53 595.48 -136.63 580.59 -138.11 565.7 -139.85 550.82 -141.75 535.93 -143.68 521.04 -145.51 506.15 -147.12 491.26 -148.4 476.38 -149.26 461.49 -149.66 446.6 -149.56 431.71 -148.97 416.82 -147.93 401.94 -146.5 387.05 -144.79 372.16 -142.9 357.27 -140.97 342.38 -139.12 327.5 -137.47 312.61 -136.14 297.72 -135.21 282.83 -134.74 267.94 -134.76 253.06 -135.29 238.17 -136.27 223.28 -137.64 208.39 -139.31 193.5 -141.18 178.62 -143.11 163.73 -144.99 148.84 -146.67 133.95 -148.06 119.06 -149.06 104.18 -149.59 89.29 -149.64 74.4 -149.19 59.51 -148.28 44.62 -146.96 29.74 -145.32 14.85 -143.47 -0.03 -141.54 -14.92 -139.65 -29.81 -137.93 -44.69 -136.49 -59.58 -135.43 -74.47 -134.82 -89.36" fill="url(#uuunion-grad)"></path><path d="M-134.83 -89.36Q-135.44 -74.47 -136.5 -59.58 -137.94 -44.69 -139.66 -29.8 -141.55 -14.92 -143.48 -0.03 -145.33 14.85 -146.97 29.74 -148.29 44.62 -149.2 59.51 -149.65 74.4 -149.6 89.29 -149.07 104.18 -148.07 119.06 -146.68 133.95 -145 148.84 -143.12 163.73 -141.19 178.62 -139.32 193.5 -137.65 208.39 -136.28 223.28 -135.3 238.17 -134.77 253.06 -134.75 267.94 -135.22 282.83 -136.15 297.72 -137.48 312.61 -139.13 327.5 -140.98 342.38 -142.91 357.27 -141.16 379.62 -128.54 387.63 -119.56 388.69 -110.58 390.2 -101.59 392.12 -92.61 394.35 -83.63 396.82 -74.64 399.41 -65.66 402.03 -56.68 404.56 -47.69 406.91 -38.71 408.98 -29.73 410.68 -20.74 411.95 -3.76 412.92 -0.76 412.98 10.64 409.28 22.05 404.79 33.45 399.61 44.83 393.87 56.19 387.74 67.53 381.41 78.86 375.08 90.17 368.95 101.45 363.21 112.72 358.03 123.96 353.54 135.19 349.81 146.39 346.88 157.56 344.75 168.72 343.33 179.85 342.53 190.95 342.18 202.04 342.13 213.1 342.16 224.14 342.09 235.16 341.71 246.17 340.86 257.15 339.4 268.11 337.22 279.06 334.26 289.99 330.52 300.9 326.03 311.81 320.9 322.7 315.24 333.58 309.23 344.45 303.03 355.32 296.85 366.18 290.88 377.03 285.31 387.89 280.27 398.75 275.89 409.6 272.25 420.47 269.38 431.34 267.26 442.21 265.81 453.1 264.94 463.99 264.5 474.9 264.32 485.83 264.21 496.77 263.97 507.73 263.44 518.71 262.44 529.71 260.84 540.73 258.56 551.78 255.53 562.85 251.76 573.95 247.29 585.08 242.2 596.23 236.63 607.41 230.73 618.63 224.67 629.87 218.65 641.14 212.84 652.44 207.42 663.78 202.52 675.14 198.26 686.54 194.7 697.96 191.88 709.42 189.76 720.9 188.29 732.41 187.35 743.95 186.8 755.51 186.49 767.1 186.22 778.71 185.83 790.35 185.14 802 183.99 813.67 182.27 825.36 179.89 837.07 176.8 848.79 173 860.51 168.55 872.25 163.52 883.99 158.04 895.74 152.26 907.48 146.34 919.23 140.47 930.97 134.82 942.7 129.55 954.42 124.79 966.13 120.64 977.83 117.16 989.51 114.38 1001.17 112.26 1012.8 110.75 1024.41 109.73 1035.99 109.08 1047.54 108.63 1059.06 108.22 1070.54 107.67 1081.99 106.82 1093.39 105.53 1104.75 103.69 1116.07 101.21 1127.34 98.07 1138.57 94.25 1149.74 89.82 1160.86 84.85 1171.94 79.46 1182.95 73.8 1193.92 68.03 1204.83 62.32 1215.68 56.83 1226.48 51.7 1237.22 47.07 1247.91 43.03 1258.54 39.62 1269.12 36.87 1279.64 34.75 1290.1 33.19 1300.52 32.1 1310.88 31.33 1321.19 30.75 1331.45 30.19 1341.67 29.48 1351.84 28.48 1361.97 27.05 1372.06 25.09 1382.11 22.53 1392.13 19.33 1402.11 15.51 1412.07 11.1 1422 6.19 1415.51 -11.38 1409.61 -28.96 1404.82 -46.54 1401.59 -64.12 1400.21 -81.7 1400.79 -99.28 1403.28 -116.87 1407.47 -134.45 1395.31 -132.72 1383.15 -131.57 1371 -131.06 1358.84 -131.26 1346.68 -132.13 1334.52 -133.61 1322.36 -135.59 1310.2 -137.92 1298.04 -140.4 1285.88 -142.85 1273.72 -145.09 1261.57 -146.92 1249.41 -148.22 1237.25 -148.87 1225.09 -148.84 1212.93 -148.12 1200.77 -146.76 1188.61 -144.88 1176.45 -142.62 1164.29 -140.16 1152.13 -137.68 1139.98 -135.38 1127.82 -133.44 1115.66 -132.01 1103.5 -131.21 1091.34 -131.08 1079.18 -131.65 1067.02 -132.87 1054.86 -134.64 1042.7 -136.83 1030.55 -139.27 1018.39 -141.76 1006.23 -144.11 994.07 -146.15 981.91 -147.7 969.75 -148.66 957.59 -148.94 945.43 -148.53 933.27 -147.45 921.12 -145.79 908.96 -143.68 896.8 -141.29 884.64 -138.79 872.48 -136.39 860.32 -134.27 848.16 -132.59 836 -131.49 823.84 -131.05 811.68 -131.31 799.53 -132.24 787.37 -133.78 775.21 -135.8 763.05 -138.14 750.89 -140.63 738.73 -143.07 726.57 -145.28 714.41 -147.07 702.25 -148.31 690.1 -148.9 677.94 -148.8 665.78 -148.02 653.62 -146.61 641.46 -144.69 629.3 -142.4 617.14 -139.92 604.98 -137.46 592.82 -135.18 580.67 -133.29 568.51 -131.91 556.35 -131.16 544.19 -131.11 532.03 -131.74 519.87 -133.01 507.71 -134.83 495.55 -137.05 483.39 -139.5 471.23 -141.99 459.08 -144.32 446.92 -146.31 434.76 -147.82 422.6 -148.71 410.44 -148.93 398.28 -148.45 386.12 -147.32 373.96 -145.61 361.8 -143.47 349.65 -141.06 337.49 -138.56 325.33 -136.18 313.17 -134.09 301.01 -132.46 288.85 -131.42 276.69 -131.05 264.53 -131.37 252.37 -132.36 240.22 -133.95 228.06 -136 215.9 -138.37 203.74 -140.86 191.58 -143.29 179.42 -145.46 167.26 -147.21 155.1 -148.39 142.94 -148.92 130.79 -148.76 118.63 -147.91 106.47 -146.45 94.31 -144.49 82.15 -142.17 69.99 -139.69 57.83 -137.23 45.67 -134.99 33.51 -133.13 21.35 -131.81 9.2 -131.13 -2.95 -131.14 -15.11 -131.83 -27.27 -133.16 -39.43 -135.02 -51.59 -137.27 -63.75 -139.73 -75.91 -142.21 -88.07 -144.52 -100.22 -146.48 -112.38 -147.93 -124.54 -148.76 -140.68 -141.3 -140.89 -118.94 -137.61 -104.17 -134.83 -89.36" fill="url(#uuunion-grad2)" filter="url(#uuunion-blur)"></path><path d="M1406.86 327.68Q1415.63 325.57 1424.41 323.24 1433.18 320.77 1441.95 318.27 1450.72 315.84 1459.49 313.58 1468.27 311.58 1477.04 309.93 1485.81 308.68 1494.58 307.89 1503.35 307.6 1512.12 307.81 1520.9 308.51 1529.67 309.68 1538.44 311.27 1547.21 313.22 1553.23 330.65 1560.23 348.07 1567.59 365.5 1574.65 382.93 1580.76 400.36 1585.38 417.79 1588.08 435.21 1588.62 452.64 1586.96 470.07 1583.24 487.5 1577.8 504.93 1571.13 522.36 1563.83 539.78 1556.57 557.21 1549.99 574.64 1544.7 592.07 1541.17 609.5 1539.72 626.93 1540.49 644.35 1543.39 661.78 1548.17 679.21 1554.4 696.64 1561.52 714.07 1568.88 731.5 1575.81 748.92 1581.69 766.35 1586 783.78 1588.33 801.21 1588.49 818.64 1586.44 836.06 1582.39 853.49 1576.7 870.92 1564.35 867.46 1552.01 864.95 1539.66 863.6 1527.32 863.51 1514.97 864.69 1502.63 867.04 1490.28 870.38 1477.94 874.46 1465.59 878.97 1453.25 883.55 1440.9 887.86 1428.55 891.57 1416.21 894.39 1403.86 896.11 1391.52 896.59 1379.17 895.79 1366.83 893.78 1354.48 890.72 1342.14 886.83 1329.79 882.42 1317.45 877.82 1305.1 873.39 1292.76 869.47 1280.41 866.35 1268.07 864.28 1255.72 863.42 1243.38 863.82 1231.03 865.47 1218.69 868.24 1206.34 871.9 1194 876.19 1181.65 880.77 1169.31 885.29 1156.96 889.4 1144.62 892.79 1132.27 895.2 1119.93 896.45 1107.58 896.42 1095.24 895.14 1082.89 892.7 1070.55 889.28 1058.2 885.15 1045.86 880.62 1033.51 876.05 1021.17 871.78 1008.82 868.13 996.48 865.4 984.13 863.79 971.79 863.42 959.44 864.33 947.09 866.43 934.75 869.58 922.4 873.53 910.06 877.97 897.71 882.57 885.37 886.97 873.02 890.83 860.68 893.87 848.33 895.84 835.99 896.59 823.64 896.07 811.3 894.32 798.95 891.46 786.61 887.73 774.26 883.41 761.92 878.82 749.57 874.32 737.23 870.26 724.88 866.94 712.54 864.63 700.19 863.5 687.85 863.63 675.5 865.02 663.16 867.55 650.81 871.04 638.47 875.22 626.12 879.77 613.78 884.33 601.43 888.56 589.09 892.13 576.74 894.77 564.4 896.28 552.05 896.54 539.71 895.53 527.36 893.32 515.02 890.09 502.67 886.09 490.33 881.62 477.98 877.03 465.63 872.66 453.29 868.86 440.94 865.91 428.6 864.04 416.25 863.4 403.91 864.03 391.56 865.88 379.22 868.82 366.87 872.62 354.53 876.98 342.18 881.57 329.84 886.05 317.49 890.05 305.15 893.29 292.8 895.51 280.46 896.53 268.11 896.29 255.77 894.8 243.42 892.17 231.08 888.6 218.73 884.38 206.39 879.82 194.04 875.27 181.7 871.09 169.35 867.59 157.01 865.04 144.66 863.64 132.32 863.49 119.97 864.61 107.63 866.91 95.28 870.22 82.94 874.27 70.59 878.77 58.25 883.36 45.9 887.69 33.56 891.43 21.21 894.29 2.35 891.29 -4.73 876.44 -5.21 866.37 -5.56 856.29 -5.77 846.22 -5.84 836.14 -5.41 821.03 -4.54 816 8.36 809.06 21.3 800.9 34.25 791.68 47.21 781.65 60.17 771.11 73.12 760.4 86.04 749.89 98.94 739.91 111.8 730.76 124.63 722.66 137.4 715.76 150.13 710.11 162.8 705.64 175.43 702.2 187.99 699.58 200.51 697.46 212.98 695.52 225.4 693.41 237.77 690.81 250.11 687.41 262.42 683.01 274.7 677.46 286.96 670.7 299.22 662.79 311.47 653.87 323.73 644.16 336.01 633.93 348.31 623.52 360.63 613.25 373 603.45 385.41 594.39 397.87 586.3 410.39 579.31 422.96 573.48 435.6 568.77 448.3 565.05 461.07 562.1 473.89 559.67 486.78 557.43 499.73 555.08 512.73 552.29 525.78 548.79 538.87 544.38 551.99 538.9 565.14 532.31 578.3 524.63 591.46 516 604.62 506.6 617.76 496.69 630.86 486.58 643.93 476.56 656.94 466.94 669.89 457.99 682.76 449.92 695.55 442.87 708.25 436.89 720.85 431.96 733.34 427.95 745.71 424.7 757.98 421.95 770.12 419.41 782.15 416.8 794.05 413.81 805.85 410.2 815.49 410.46 825.12 410.15 834.74 409.22 844.35 407.66 853.96 405.48 863.55 402.74 873.13 399.5 882.71 395.87 892.27 391.95 901.83 387.88 911.37 383.79 920.91 379.83 930.44 376.13 939.96 372.79 949.47 369.94 958.97 367.63 968.46 365.92 977.94 364.84 987.41 364.37 996.87 364.48 1006.33 365.1 1015.78 366.13 1025.21 367.47 1034.64 368.99 1044.06 370.55 1053.47 372.02 1062.88 373.27 1072.27 374.17 1081.66 374.63 1091.04 374.55 1100.41 373.89 1109.78 372.61 1119.13 370.72 1128.48 368.25 1137.83 365.25 1147.16 361.83 1156.49 358.07 1165.82 354.11 1175.14 350.08 1184.45 346.1 1193.75 342.32 1203.06 338.85 1212.35 335.81 1221.64 333.28 1230.93 331.31 1240.21 329.96 1249.49 329.21 1258.76 329.04 1268.03 329.41 1277.3 330.22 1286.56 331.39 1295.83 332.79 1305.08 334.29 1314.34 335.76 1323.6 337.07 1332.85 338.09 1342.1 338.71 1351.35 338.85 1360.6 338.44 1369.86 337.43 1379.11 335.82 1388.36 333.62 1397.61 330.88 1406.86 327.68" fill="url(#uuunion-grad3)" filter="url(#uuunion-blur2)"></path></svg>